<svg width="109" height="62" viewBox="0 0 109 62" fill="none" xmlns="http://www.w3.org/2000/svg">
<path d="M0 31C0 13.8792 13.8792 0 31 0V0C48.1208 0 62 13.8792 62 31V31C62 48.1208 48.1208 62 31 62V62C13.8792 62 0 48.1208 0 31V31Z" fill="#ADF4FF"/>
<path fill-rule="evenodd" clip-rule="evenodd" d="M36.2072 38.75L22.7072 38.75C21.8787 38.75 21.2072 38.0784 21.2072 37.25L21.2072 23.75C21.2072 22.9216 21.8787 22.25 22.7072 22.25C23.5356 22.25 24.2072 22.9216 24.2072 23.75V33.6287L38.8965 18.9393C39.4823 18.3536 40.432 18.3536 41.0178 18.9393C41.6036 19.5251 41.6036 20.4749 41.0178 21.0607L26.3285 35.75L36.2072 35.75C37.0356 35.75 37.7072 36.4216 37.7072 37.25C37.7072 38.0784 37.0356 38.75 36.2072 38.75Z" fill="white"/>
<path fill-rule="evenodd" clip-rule="evenodd" d="M16.5 43C16.5 42.1716 17.1716 41.5 18 41.5L42 41.5C42.8284 41.5 43.5 42.1716 43.5 43C43.5 43.8284 42.8284 44.5 42 44.5L18 44.5C17.1716 44.5 16.5 43.8284 16.5 43Z" fill="white"/>
<path d="M47 31C47 13.8792 60.8792 0 78 0V0C95.1208 0 109 13.8792 109 31V31C109 48.1208 95.1208 62 78 62V62C60.8792 62 47 48.1208 47 31V31Z" fill="#2AB0E5"/>
<path fill-rule="evenodd" clip-rule="evenodd" d="M69.5 33.5L69.5 20C69.5 19.1715 70.1716 18.5 71 18.5L84.5 18.5C85.3284 18.5 86 19.1715 86 20C86 20.8284 85.3284 21.5 84.5 21.5H74.6213L89.3107 36.1893C89.8964 36.7751 89.8964 37.7248 89.3107 38.3106C88.7249 38.8964 87.7751 38.8964 87.1893 38.3106L72.5 23.6213L72.5 33.5C72.5 34.3284 71.8284 35 71 35C70.1716 35 69.5 34.3284 69.5 33.5Z" fill="white"/>
<path fill-rule="evenodd" clip-rule="evenodd" d="M66.5 43C66.5 42.1716 67.1716 41.5 68 41.5L92 41.5C92.8284 41.5 93.5 42.1716 93.5 43C93.5 43.8284 92.8284 44.5 92 44.5L68 44.5C67.1716 44.5 66.5 43.8284 66.5 43Z" fill="white"/>
</svg>
