<svg width="256" height="58" viewBox="0 0 256 58" fill="none" xmlns="http://www.w3.org/2000/svg">
<path d="M251.259 44.2484L249.412 37.2411H241.188L239.3 44.2484H234.81L242.657 14.7088H248.279L256 44.2484H251.259ZM245.3 19.9118L242.027 33.1291H248.573L245.3 19.9118Z" fill="#1E1E1E"/>
<path d="M228.258 44.2484L223.139 33.0871H218.607V44.2484H213.866V14.7088H223.6C225.866 14.7088 227.838 15.548 229.475 17.1424C231.069 18.7789 231.908 20.709 231.908 22.9748V24.7791C231.908 26.2057 231.531 27.5904 230.817 28.8911C230.062 30.1919 229.097 31.1989 227.838 31.9542L233.503 44.2484H228.258ZM218.607 28.9331H223.265C224.314 28.9331 225.237 28.5555 225.992 27.8002C226.747 27.0449 227.125 26.1218 227.125 25.0308V22.807C227.125 21.716 226.747 20.7929 225.992 20.0376C225.237 19.2824 224.314 18.9047 223.265 18.9047H218.607V28.9331Z" fill="#1E1E1E"/>
<path d="M189.043 22.765C189.043 20.4153 189.84 18.4432 191.519 16.7648C193.197 15.1284 195.211 14.2892 197.561 14.2892H199.491C201.841 14.2892 203.813 15.1284 205.491 16.7648C207.17 18.4432 208.009 20.4153 208.009 22.765V36.1502C208.009 38.4999 207.17 40.514 205.491 42.1924C203.813 43.8708 201.799 44.668 199.491 44.668H197.561C195.211 44.668 193.197 43.8708 191.519 42.1924C189.84 40.514 189.043 38.4999 189.043 36.1502V22.765ZM193.785 22.8909V36.0663C193.785 37.2411 194.162 38.2482 195.001 39.0874C195.799 39.9265 196.806 40.3042 197.981 40.3042H199.072C200.204 40.3042 201.17 39.9265 202.009 39.0874C202.848 38.2482 203.268 37.2411 203.268 36.0663V22.8909C203.268 21.716 202.848 20.709 202.009 19.8698C201.17 19.0306 200.204 18.611 199.072 18.611H197.981C196.806 18.611 195.799 19.0306 195.001 19.8698C194.162 20.709 193.785 21.716 193.785 22.8909Z" fill="#1E1E1E"/>
<path d="M183.704 35.7306C183.704 38.0803 182.865 40.0944 181.186 41.7728C179.508 43.4511 177.536 44.2484 175.186 44.2484H164.822V14.7088H175.186C177.536 14.7088 179.508 15.548 181.186 17.1844C182.865 18.8628 183.704 20.8349 183.704 23.1846V35.7306ZM169.563 18.9887V39.9685H174.766C175.899 39.9685 176.864 39.5489 177.704 38.7097C178.543 37.8705 178.962 36.8215 178.962 35.6466V23.3105C178.962 22.1356 178.543 21.1286 177.704 20.2894C176.864 19.4502 175.899 18.9887 174.766 18.9887H169.563Z" fill="#1E1E1E"/>
<path d="M139.481 44.2484V14.7088H143.719L153.831 33.6745V14.7088H158.32V44.2484H154.712L143.97 24.3175V44.2484H139.481Z" fill="#1E1E1E"/>
<path d="M118.852 44.2484V14.7088H133.789V18.9047H123.593V27.3806H133.286V31.5766H123.593V40.0105H133.789V44.2484H118.852Z" fill="#1E1E1E"/>
<path d="M96.4195 44.2484V14.7088H105.986C108.294 14.7088 110.266 15.548 111.903 17.1424C113.497 18.7789 114.336 20.751 114.336 23.0587V25.2826C114.336 27.5904 113.497 29.5625 111.903 31.1989C110.266 32.8353 108.294 33.6326 105.986 33.6326H101.161V44.2484H96.4195ZM101.161 29.4366H105.735C106.825 29.4366 107.749 29.059 108.504 28.2617C109.259 27.5065 109.679 26.5414 109.679 25.4504V22.8909C109.679 21.8 109.259 20.8768 108.504 20.0796C107.749 19.3243 106.825 18.9047 105.735 18.9047H101.161V29.4366Z" fill="#1E1E1E"/>
<path d="M72.0829 36.5698V34.7235H76.6984V36.4859C76.6984 37.5768 77.0761 38.5419 77.8314 39.2971C78.5866 40.0524 79.4678 40.4301 80.5587 40.4301H82.1532C83.3281 40.4301 84.2512 40.0524 84.9645 39.2552C85.6778 38.4999 86.0555 37.4929 86.0555 36.318V35.6047C86.0555 34.4298 85.6778 33.4228 84.9645 32.6675C84.2092 31.9122 83.0763 31.5346 81.5658 31.5346H80.8525C78.2929 31.5346 76.2369 30.7793 74.6844 29.1849C73.1319 27.5904 72.3766 25.7022 72.3766 23.5203V22.0517C72.3766 19.8698 73.1319 18.0656 74.7263 16.555C76.3208 15.0445 78.209 14.2892 80.4748 14.2892H82.6567C84.8386 14.2892 86.6849 15.0864 88.1534 16.6389C89.622 18.2334 90.3773 20.1216 90.3773 22.3874V24.3175H85.8457V22.4713C85.8457 21.3804 85.468 20.4153 84.7547 19.66C84.0414 18.9047 83.1602 18.4852 82.0693 18.4852H80.8525C79.7615 18.4852 78.8804 18.8628 78.167 19.5761C77.4118 20.3314 77.0761 21.2125 77.0761 22.2196V23.0588C77.0761 24.3175 77.4537 25.3246 78.209 26.1218C78.9643 26.961 80.0552 27.3386 81.5658 27.3386H82.363C85.0904 27.3386 87.1884 28.0939 88.615 29.5625C90.0416 31.0311 90.7969 32.9193 90.7969 35.269V36.5278C90.7969 38.7936 90.0416 40.7238 88.5311 42.3182C87.0205 43.9127 85.0904 44.668 82.8246 44.668H80.0972C77.8314 44.668 75.9432 43.9127 74.3907 42.3182C72.8382 40.7238 72.0829 38.8356 72.0829 36.5698Z" fill="#1E1E1E"/>
<path d="M0 7.24758C0 3.24485 3.24485 0 7.24758 0H49.9701C53.9729 0 57.2177 3.24485 57.2177 7.24758V49.9701C57.2177 53.9729 53.9729 57.2177 49.9701 57.2177H7.24758C3.24485 57.2177 0 53.9729 0 49.9701V7.24758Z" fill="url(#paint0_linear_137_198)"/>
<g clip-path="url(#clip0_137_198)">
<path d="M4.55409 28.2008C3.56837 29.2202 3.56837 30.8743 4.55409 31.8937C5.53981 32.9131 7.13922 32.9131 8.12493 31.8937C9.11065 30.8743 9.11065 29.2202 8.12493 28.2008C7.13922 27.1814 5.53981 27.1814 4.55409 28.2008Z" fill="white"/>
<path d="M38.7586 33.2839L38.7665 33.2757C35.7621 33.2211 34.4201 31.9169 34.4774 28.5262L34.4673 28.5367C34.4977 26.8931 33.9166 25.2402 32.7038 23.986C31.4911 22.7318 29.8928 22.1308 28.3035 22.1622L28.3136 22.1517C25.0361 22.211 23.7739 20.8231 23.7211 17.7149L23.7132 17.723C23.7132 17.723 23.711 17.7068 23.711 17.6986L23.7211 17.7091C23.6615 14.4219 24.9664 13.17 27.8573 13.1142L27.8494 13.1061C28.0326 13.1026 28.2136 13.0758 28.3945 13.0514L28.3754 13.0758C32.8533 12.5097 34.4595 14.3731 34.8978 18.0776L34.9135 18.059C35.0158 18.9598 35.3834 19.8339 36.051 20.5256C37.629 22.1575 40.1861 22.1575 41.7641 20.5256C43.3422 18.8936 43.3422 16.2491 41.7641 14.6172C40.9178 13.7419 39.7916 13.3525 38.6833 13.4152L38.6968 13.399C35.0934 13.5931 33.041 12.2784 32.8061 7.62076L32.7893 7.64052C32.7308 6.3898 32.2576 5.15534 31.3337 4.19986C29.3612 2.16104 26.1646 2.16104 24.192 4.19986C23.2277 5.19719 22.7432 6.49673 22.7208 7.80325L22.7129 7.79512C22.6589 10.7836 21.4484 12.1331 18.2699 12.0727L18.28 12.0832C16.8211 12.0529 15.352 12.6027 14.2393 13.7547C12.0701 15.9981 12.0701 19.6352 14.2393 21.8786C15.3015 22.977 16.6862 23.5292 18.0777 23.5524L18.0698 23.5605C21.0741 23.6152 22.4162 24.9194 22.3588 28.31L22.369 28.2996C22.3386 29.9432 22.9197 31.5961 24.1325 32.8503C25.3452 34.1045 26.9435 34.7055 28.5328 34.6741L28.5227 34.6846C31.8002 34.6253 33.0624 36.0132 33.1152 39.1202L33.1231 39.1121C33.1231 39.1202 33.1253 39.1284 33.1253 39.1377L33.1152 39.1272C33.1748 42.4144 31.8698 43.6663 28.979 43.7221L28.9869 43.7291C28.8037 43.7326 28.6227 43.7593 28.4417 43.7837L28.4609 43.7593C23.983 44.3254 22.3768 42.4621 21.9385 38.7576L21.9227 38.7762C21.8205 37.8753 21.4529 37.0012 20.7853 36.3096C19.2072 34.6776 16.6502 34.6776 15.0722 36.3096C13.4941 37.9404 13.4941 40.586 15.0722 42.218C15.9185 43.0933 17.0447 43.4827 18.153 43.4199L18.1395 43.4362C21.7429 43.242 23.7953 44.5555 24.0302 49.2144L24.047 49.1934C24.1055 50.4442 24.5787 51.6786 25.5026 52.6341C27.4751 54.6741 30.6717 54.6741 32.6443 52.6341C33.6086 51.6368 34.0931 50.3372 34.1155 49.0307L34.1234 49.0377C34.1773 46.0492 35.3879 44.6997 38.5664 44.7601L38.5563 44.7496C40.0152 44.7799 41.4843 44.2301 42.597 43.0781C44.7662 40.8347 44.7662 37.1976 42.597 34.9542C41.5348 33.8558 40.1501 33.3036 38.7586 33.2804V33.2839Z" fill="white"/>
<path d="M52.2822 24.9426C51.2965 23.9232 49.6971 23.9232 48.7114 24.9426C47.7256 25.962 47.7256 27.6161 48.7114 28.6355C49.6971 29.6549 51.2965 29.6549 52.2822 28.6355C53.2679 27.6161 53.2679 25.962 52.2822 24.9426Z" fill="white"/>
</g>
<defs>
<linearGradient id="paint0_linear_137_198" x1="0" y1="28.6089" x2="57.2177" y2="28.6089" gradientUnits="userSpaceOnUse">
<stop stop-color="#4ED1F8"/>
<stop offset="1" stop-color="#0FBAE5"/>
</linearGradient>
<clipPath id="clip0_137_198">
<rect width="49.2072" height="51.496" fill="white" transform="translate(3.81451 2.67017)"/>
</clipPath>
</defs>
</svg>
