<svg width="109" height="62" viewBox="0 0 109 62" fill="none" xmlns="http://www.w3.org/2000/svg">
<rect width="62" height="62" rx="31" fill="#ADF4FF"/>
<path d="M41.0178 21.0607C41.6035 20.4749 41.6035 19.5251 41.0178 18.9393C40.432 18.3536 39.4822 18.3536 38.8964 18.9393L41.0178 21.0607ZM21.2071 37.25C21.2071 38.0784 21.8787 38.75 22.7071 38.75L36.2071 38.75C37.0355 38.75 37.7071 38.0784 37.7071 37.25C37.7071 36.4216 37.0355 35.75 36.2071 35.75H24.2071V23.75C24.2071 22.9216 23.5355 22.25 22.7071 22.25C21.8787 22.25 21.2071 22.9216 21.2071 23.75L21.2071 37.25ZM38.8964 18.9393L21.6464 36.1893L23.7678 38.3107L41.0178 21.0607L38.8964 18.9393Z" fill="white"/>
<path d="M18 43L42 43" stroke="white" stroke-width="3" stroke-linecap="round"/>
<rect x="47" width="62" height="62" rx="31" fill="#2AB0E5"/>
<path d="M87.1893 38.3107C87.7751 38.8964 88.7249 38.8964 89.3107 38.3107C89.8964 37.7249 89.8964 36.7751 89.3107 36.1893L87.1893 38.3107ZM71 18.5C70.1716 18.5 69.5 19.1716 69.5 20L69.5 33.5C69.5 34.3284 70.1716 35 71 35C71.8284 35 72.5 34.3284 72.5 33.5V21.5H84.5C85.3284 21.5 86 20.8284 86 20C86 19.1716 85.3284 18.5 84.5 18.5L71 18.5ZM89.3107 36.1893L72.0607 18.9393L69.9393 21.0607L87.1893 38.3107L89.3107 36.1893Z" fill="white"/>
<path d="M68 43L92 43" stroke="white" stroke-width="3" stroke-linecap="round"/>
</svg>
