<svg width="58" height="58" viewBox="0 0 58 58" fill="none" xmlns="http://www.w3.org/2000/svg">
<g clip-path="url(#clip0_150_26)">
<path d="M0 7.24758C0 3.24485 3.24485 0 7.24758 0H49.9701C53.9729 0 57.2177 3.24485 57.2177 7.24758V49.9701C57.2177 53.9729 53.9729 57.2177 49.9701 57.2177H7.24758C3.24485 57.2177 0 53.9729 0 49.9701V7.24758Z" fill="url(#paint0_linear_150_26)"/>
<g clip-path="url(#clip1_150_26)">
<path d="M4.55408 28.2008C3.56836 29.2202 3.56836 30.8743 4.55408 31.8937C5.5398 32.9131 7.1392 32.9131 8.12492 31.8937C9.11064 30.8743 9.11064 29.2202 8.12492 28.2008C7.1392 27.1814 5.5398 27.1814 4.55408 28.2008Z" fill="white"/>
<path d="M38.7586 33.2839L38.7665 33.2758C35.7621 33.2211 34.4201 31.917 34.4774 28.5263L34.4673 28.5367C34.4977 26.8931 33.9166 25.2402 32.7038 23.986C31.4911 22.7318 29.8928 22.1308 28.3035 22.1622L28.3136 22.1518C25.0361 22.211 23.7739 20.8232 23.7211 17.7149L23.7132 17.7231C23.7132 17.7231 23.711 17.7068 23.711 17.6987L23.7211 17.7091C23.6615 14.4219 24.9664 13.17 27.8573 13.1142L27.8494 13.1061C28.0326 13.1026 28.2136 13.0759 28.3945 13.0515L28.3754 13.0759C32.8533 12.5098 34.4595 14.3731 34.8978 18.0776L34.9135 18.059C35.0158 18.9599 35.3834 19.834 36.051 20.5256C37.629 22.1576 40.1861 22.1576 41.7641 20.5256C43.3422 18.8936 43.3422 16.2492 41.7641 14.6172C40.9178 13.7419 39.7916 13.3525 38.6833 13.4153L38.6968 13.399C35.0934 13.5931 33.041 12.2785 32.8061 7.62079L32.7893 7.64055C32.7308 6.38983 32.2576 5.15537 31.3337 4.19989C29.3612 2.16107 26.1646 2.16107 24.192 4.19989C23.2277 5.19722 22.7432 6.49677 22.7208 7.80329L22.7129 7.79515C22.6589 10.7836 21.4484 12.1332 18.2699 12.0727L18.28 12.0832C16.8211 12.053 15.352 12.6028 14.2393 13.7547C12.0701 15.9981 12.0701 19.6352 14.2393 21.8786C15.3015 22.9771 16.6862 23.5292 18.0777 23.5524L18.0698 23.5606C21.0741 23.6152 22.4162 24.9194 22.3588 28.3101L22.369 28.2996C22.3386 29.9432 22.9197 31.5961 24.1325 32.8503C25.3452 34.1046 26.9435 34.7055 28.5328 34.6741L28.5227 34.6846C31.8002 34.6253 33.0624 36.0132 33.1152 39.1202L33.1231 39.1121C33.1231 39.1203 33.1253 39.1284 33.1253 39.1377L33.1152 39.1272C33.1748 42.4145 31.8698 43.6663 28.979 43.7221L28.9869 43.7291C28.8037 43.7326 28.6227 43.7593 28.4417 43.7837L28.4609 43.7593C23.983 44.3254 22.3768 42.4621 21.9385 38.7576L21.9227 38.7762C21.8205 37.8753 21.4529 37.0012 20.7853 36.3096C19.2072 34.6776 16.6502 34.6776 15.0722 36.3096C13.4941 37.9404 13.4941 40.586 15.0722 42.218C15.9185 43.0933 17.0447 43.4827 18.153 43.4199L18.1395 43.4362C21.7429 43.2421 23.7953 44.5556 24.0302 49.2144L24.047 49.1935C24.1055 50.4442 24.5787 51.6787 25.5026 52.6341C27.4751 54.6741 30.6717 54.6741 32.6443 52.6341C33.6086 51.6368 34.0931 50.3373 34.1155 49.0307L34.1234 49.0377C34.1773 46.0492 35.3879 44.6997 38.5664 44.7601L38.5563 44.7497C40.0152 44.7799 41.4843 44.2301 42.597 43.0782C44.7662 40.8348 44.7662 37.1977 42.597 34.9543C41.5348 33.8558 40.1501 33.3037 38.7586 33.2804V33.2839Z" fill="white"/>
<path d="M52.2822 24.9427C51.2965 23.9232 49.6971 23.9232 48.7113 24.9427C47.7256 25.9621 47.7256 27.6161 48.7113 28.6356C49.6971 29.655 51.2965 29.655 52.2822 28.6356C53.2679 27.6161 53.2679 25.9621 52.2822 24.9427Z" fill="white"/>
</g>
</g>
<defs>
<linearGradient id="paint0_linear_150_26" x1="0" y1="28.6089" x2="57.2177" y2="28.6089" gradientUnits="userSpaceOnUse">
<stop stop-color="#4ED1F8"/>
<stop offset="1" stop-color="#0FBAE5"/>
</linearGradient>
<clipPath id="clip0_150_26">
<rect width="57.2177" height="57.2177" fill="white"/>
</clipPath>
<clipPath id="clip1_150_26">
<rect width="49.2072" height="51.496" fill="white" transform="translate(3.81451 2.67017)"/>
</clipPath>
</defs>
</svg>
